<svg width="83" height="83" viewBox="0 0 83 83" fill="none" xmlns="http://www.w3.org/2000/svg">
    <g filter="url(#filter0_d)">
        <path fill-rule="evenodd" clip-rule="evenodd" d="M41.5 71C58.897 71 73 56.897 73 39.5C73 22.103 58.897 8 41.5 8C24.103 8 10 22.103 10 39.5C10 56.897 24.103 71 41.5 71Z" fill="#E29000"/>
    </g>
    <path fill-rule="evenodd" clip-rule="evenodd" d="M35 35V42H38V35H35ZM41 35V42H44V35H41ZM33 47H52V44H33V47ZM47 35V42H50V35H47ZM42.5 26L33 31V33H52V31L42.5 26Z" fill="white"/>
    <defs>
        <filter id="filter0_d" x="0" y="0" width="83" height="83" filterUnits="userSpaceOnUse" color-interpolation-filters="sRGB">
            <feFlood flood-opacity="0" result="BackgroundImageFix"/>
            <feColorMatrix in="SourceAlpha" type="matrix" values="0 0 0 0 0 0 0 0 0 0 0 0 0 0 0 0 0 0 127 0"/>
            <feOffset dy="2"/>
            <feGaussianBlur stdDeviation="5"/>
            <feColorMatrix type="matrix" values="0 0 0 0 0 0 0 0 0 0 0 0 0 0 0 0 0 0 0.1 0"/>
            <feBlend mode="normal" in2="BackgroundImageFix" result="effect1_dropShadow"/>
            <feBlend mode="normal" in="SourceGraphic" in2="effect1_dropShadow" result="shape"/>
        </filter>
    </defs>
</svg>