<svg width="34" height="24" viewBox="0 0 34 24" fill="none" xmlns="http://www.w3.org/2000/svg">
<path fill-rule="evenodd" clip-rule="evenodd" d="M28.3333 21.1765C29.8917 21.1765 31.1525 19.9059 31.1525 18.3529L31.1667 2.82353C31.1667 1.27059 29.8917 0 28.3333 0H5.66667C4.10833 0 2.83333 1.27059 2.83333 2.82353V18.3529C2.83333 19.9059 4.10833 21.1765 5.66667 21.1765H0C0 22.7294 1.275 24 2.83333 24H31.1667C32.725 24 34 22.7294 34 21.1765H28.3333ZM5.6665 2.82349H28.3332V18.3529H5.6665V2.82349ZM17.0002 22.5882C16.221 22.5882 15.5835 21.9529 15.5835 21.1764C15.5835 20.3999 16.221 19.7646 17.0002 19.7646C17.7793 19.7646 18.4168 20.3999 18.4168 21.1764C18.4168 21.9529 17.7793 22.5882 17.0002 22.5882Z" fill="#919AA3"/>
</svg>
