<svg width="83" height="83" viewBox="0 0 83 83" fill="none" xmlns="http://www.w3.org/2000/svg">
    <g filter="url(#filter0_d)">
        <path fill-rule="evenodd" clip-rule="evenodd" d="M41.5 71C58.897 71 73 56.897 73 39.5C73 22.103 58.897 8 41.5 8C24.103 8 10 22.103 10 39.5C10 56.897 24.103 71 41.5 71Z" fill="#E29000"/>
    </g>
    <mask id="mask0" mask-type="alpha" maskUnits="userSpaceOnUse" x="28" y="30" width="30" height="16">
        <path fill-rule="evenodd" clip-rule="evenodd" d="M43.8668 35.3333C42.7735 32.2267 39.8135 30 36.3335 30C31.9202 30 28.3335 33.5867 28.3335 38C28.3335 42.4133 31.9202 46 36.3335 46C39.8135 46 42.7735 43.7733 43.8668 40.6667H49.6668V46H55.0002V40.6667H57.6668V35.3333H43.8668ZM36.3337 40.6666C34.867 40.6666 33.667 39.4666 33.667 38C33.667 36.5333 34.867 35.3333 36.3337 35.3333C37.8003 35.3333 39.0003 36.5333 39.0003 38C39.0003 39.4666 37.8003 40.6666 36.3337 40.6666Z" fill="white"/>
    </mask>
    <g mask="url(#mask0)">
        <rect x="9.6665" y="4.66669" width="66.6667" height="66.6667" fill="white"/>
        <mask id="mask1" mask-type="alpha" maskUnits="userSpaceOnUse" x="9" y="4" width="68" height="68">
            <rect x="9.6665" y="4.66669" width="66.6667" height="66.6667" fill="white"/>
        </mask>
        <g mask="url(#mask1)">
        </g>
    </g>
    <defs>
        <filter id="filter0_d" x="0" y="0" width="83" height="83" filterUnits="userSpaceOnUse" color-interpolation-filters="sRGB">
            <feFlood flood-opacity="0" result="BackgroundImageFix"/>
            <feColorMatrix in="SourceAlpha" type="matrix" values="0 0 0 0 0 0 0 0 0 0 0 0 0 0 0 0 0 0 127 0"/>
            <feOffset dy="2"/>
            <feGaussianBlur stdDeviation="5"/>
            <feColorMatrix type="matrix" values="0 0 0 0 0 0 0 0 0 0 0 0 0 0 0 0 0 0 0.1 0"/>
            <feBlend mode="normal" in2="BackgroundImageFix" result="effect1_dropShadow"/>
            <feBlend mode="normal" in="SourceGraphic" in2="effect1_dropShadow" result="shape"/>
        </filter>
    </defs>
</svg>
