<svg width="27" height="26" viewBox="0 0 27 26" fill="none" xmlns="http://www.w3.org/2000/svg">
    <path fill-rule="evenodd" clip-rule="evenodd" d="M12.2186 4.004V0C5.81921 0.65 0.699707 6.253 0.699707 13C0.699707 19.747 5.81921 25.35 12.2186 26V21.996C8.37896 21.372 4.53934 17.576 4.53934 13C4.53934 8.424 8.37896 4.628 12.2186 4.004ZM22.4192 11.7H26.2972C25.6957 5.2 21.1777 0.611 14.7783 0V4.004C18.6179 4.563 21.8688 7.8 22.4192 11.7ZM14.7783 21.9958V25.9998C21.1777 25.3888 25.6957 20.7998 26.2972 14.2998H22.4192C21.8688 18.1998 18.6179 21.4368 14.7783 21.9958Z" fill="white"/>
</svg>