<svg width="20" height="20" viewBox="0 0 20 20" fill="none" xmlns="http://www.w3.org/2000/svg">
<path fill-rule="evenodd" clip-rule="evenodd" d="M0.504395 6.41309H4.40256V19.9987H0.504395V6.41309ZM2.35419 4.71379H2.32596C0.914864 4.71379 0 3.67525 0 2.3601C0 1.01806 0.94191 0 2.38123 0C3.81938 0 4.70367 1.01549 4.73189 2.35626C4.73189 3.6714 3.81938 4.71379 2.35419 4.71379ZM20 20H15.5798V12.9683C15.5798 11.1282 14.8883 9.8732 13.3679 9.8732C12.2049 9.8732 11.5581 10.7197 11.2571 11.5379C11.1442 11.8299 11.1618 12.2384 11.1618 12.6482V20H6.78271C6.78271 20 6.83916 7.54512 6.78271 6.41309H11.1618V8.54524C11.4205 7.61299 12.8199 6.28247 15.0529 6.28247C17.8234 6.28247 20 8.23791 20 12.4446V20Z" fill="#919AA3"/>
</svg>
