<svg width="119" height="64" viewBox="0 0 119 64" fill="none" xmlns="http://www.w3.org/2000/svg">
<g filter="url(#filter0_d)">
<path fill-rule="evenodd" clip-rule="evenodd" d="M97.5896 21.2095C97.6104 21.2365 97.6309 21.2636 97.6514 21.2908L97.6719 21.2703C98.6187 21.9579 99.7871 22.364 101.051 22.364C104.21 22.364 106.771 19.828 106.771 16.6996C106.771 14.881 105.906 13.2626 104.561 12.2261C100.798 8.38623 95.5312 6 89.7017 6C78.2686 6 69 15.1782 69 26.5C69 37.8218 78.2686 47 89.7017 47C98.46 47 105.947 41.6148 108.971 34.0054C108.971 34.0054 105.707 31.5499 102.635 31.5348C100.331 31.5235 97.7798 32.883 96.6479 33.5636C94.947 35.2017 92.625 36.2105 90.0649 36.2105C84.8499 36.2105 80.6221 32.024 80.6221 26.8596C80.6221 21.6953 84.8499 17.5088 90.0649 17.5088C92.4407 17.5088 94.6113 18.3775 96.271 19.8118C96.6279 20.3483 97.0745 20.8212 97.5896 21.2095Z" fill="url(#paint0_linear)"/>
<mask id="mask0" mask-type="alpha" maskUnits="userSpaceOnUse" x="69" y="6" width="40" height="41">
<path fill-rule="evenodd" clip-rule="evenodd" d="M97.5896 21.2095C97.6104 21.2365 97.6309 21.2636 97.6514 21.2908L97.6719 21.2703C98.6187 21.9579 99.7871 22.364 101.051 22.364C104.21 22.364 106.771 19.828 106.771 16.6996C106.771 14.881 105.906 13.2626 104.561 12.2261C100.798 8.38623 95.5312 6 89.7017 6C78.2686 6 69 15.1782 69 26.5C69 37.8218 78.2686 47 89.7017 47C98.46 47 105.947 41.6148 108.971 34.0054C108.971 34.0054 105.707 31.5499 102.635 31.5348C100.331 31.5235 97.7798 32.883 96.6479 33.5636C94.947 35.2017 92.625 36.2105 90.0649 36.2105C84.8499 36.2105 80.6221 32.024 80.6221 26.8596C80.6221 21.6953 84.8499 17.5088 90.0649 17.5088C92.4407 17.5088 94.6113 18.3775 96.271 19.8118C96.6279 20.3483 97.0745 20.8212 97.5896 21.2095Z" fill="white"/>
</mask>
<g mask="url(#mask0)">
<path opacity="0.6" fill-rule="evenodd" clip-rule="evenodd" d="M92.6704 43.4035C103.594 43.4035 103.594 33.3333 108.678 34.1426C113.57 34.921 119.302 37.0204 119.302 37.0204C119.302 37.0204 117.911 31.4497 116.11 30.5391C112.497 28.7122 103.685 28.5614 103.685 27.3991C103.685 19.7519 97.6306 15.7105 92.6704 15.7105C85.0134 15.7105 78.8062 21.9098 78.8062 29.557C78.8062 37.2042 85.0164 43.4035 92.6704 43.4035Z" fill="url(#paint1_linear)"/>
<path opacity="0.6" fill-rule="evenodd" clip-rule="evenodd" d="M92.6704 43.4035C103.594 43.4035 103.594 33.3333 108.678 34.1426C113.57 34.921 119.302 37.0204 119.302 37.0204C119.302 37.0204 117.911 31.4497 116.11 30.5391C112.497 28.7122 103.685 28.5614 103.685 27.3991C103.685 19.7519 97.6306 15.7105 92.6704 15.7105C85.0134 15.7105 78.8062 21.9098 78.8062 29.557C78.8062 37.2042 85.0164 43.4035 92.6704 43.4035Z" fill="url(#paint2_linear)"/>
<path opacity="0.4" fill-rule="evenodd" clip-rule="evenodd" d="M102.686 50.057C107.851 50.057 112.038 45.9108 112.038 40.7961C112.038 35.6814 107.851 31.5351 102.686 31.5351C97.5208 31.5351 93.3337 35.6814 93.3337 40.7961C93.3337 45.9108 97.5208 50.057 102.686 50.057Z" fill="url(#paint3_linear)"/>
<path opacity="0.3" fill-rule="evenodd" clip-rule="evenodd" d="M75.265 26.5C78.1233 26.5 80.4405 24.2055 80.4405 21.375C80.4405 18.5445 78.1233 16.25 75.265 16.25C72.4067 16.25 70.0896 18.5445 70.0896 21.375C70.0896 24.2055 72.4067 26.5 75.265 26.5Z" fill="url(#paint4_linear)"/>
<path opacity="0.3" fill-rule="evenodd" clip-rule="evenodd" d="M75.265 26.5C78.1233 26.5 80.4405 24.2055 80.4405 21.375C80.4405 18.5445 78.1233 16.25 75.265 16.25C72.4067 16.25 70.0896 18.5445 70.0896 21.375C70.0896 24.2055 72.4067 26.5 75.265 26.5Z" fill="url(#paint5_linear)"/>
<path opacity="0.2" fill-rule="evenodd" clip-rule="evenodd" d="M103.503 28.9276C103.503 38.9087 95.332 47 85.2527 47C75.1733 47 67.0024 38.9087 67.0024 28.9276C67.0024 18.9465 75.1733 10.8553 85.2527 10.8553C95.332 10.8553 103.503 18.9465 103.503 28.9276Z" fill="url(#paint6_linear)"/>
<path opacity="0.2" fill-rule="evenodd" clip-rule="evenodd" d="M116.215 28.9276C116.215 38.9087 108.044 47 97.9644 47C87.885 47 79.7141 38.9087 79.7141 28.9276C79.7141 18.9465 87.885 10.8553 97.9644 10.8553C108.044 10.8553 116.215 18.9465 116.215 28.9276Z" fill="url(#paint7_linear)"/>
<path opacity="0.2" fill-rule="evenodd" clip-rule="evenodd" d="M102.777 25.3311C102.777 35.3122 94.6057 43.4035 84.5264 43.4035C74.447 43.4035 66.2761 35.3122 66.2761 25.3311C66.2761 15.35 74.447 7.25876 84.5264 7.25876C94.6057 7.25876 102.777 15.35 102.777 25.3311Z" fill="url(#paint8_linear)"/>
<path opacity="0.2" fill-rule="evenodd" clip-rule="evenodd" d="M91.4269 40.1667C97.996 40.1667 103.321 34.8932 103.321 28.3882C103.321 21.8831 97.996 16.6096 91.4269 16.6096C84.8578 16.6096 79.5325 21.8831 79.5325 28.3882C79.5325 34.8932 84.8578 40.1667 91.4269 40.1667Z" fill="url(#paint9_linear)"/>
<path opacity="0.1" fill-rule="evenodd" clip-rule="evenodd" d="M80.5311 63.7237C87.1002 63.7237 92.4256 58.4503 92.4256 51.9452C92.4256 45.4401 87.1002 40.1667 80.5311 40.1667C73.962 40.1667 68.6367 45.4401 68.6367 51.9452C68.6367 58.4503 73.962 63.7237 80.5311 63.7237Z" fill="url(#paint10_linear)"/>
<path opacity="0.2" fill-rule="evenodd" clip-rule="evenodd" d="M90.6098 37.829C96.1258 37.829 100.597 33.4009 100.597 27.9386C100.597 22.4763 96.1258 18.0482 90.6098 18.0482C85.0937 18.0482 80.6221 22.4763 80.6221 27.9386C80.6221 33.4009 85.0937 37.829 90.6098 37.829Z" fill="url(#paint11_linear)"/>
<path opacity="0.2" fill-rule="evenodd" clip-rule="evenodd" d="M63.3706 6.62479V6.65079H47.3484V14.5856H58.4126V27.4958C58.4028 27.4958 58.3931 27.4958 58.3833 27.4958V47.9264C63.9766 47.9264 68.511 43.3528 68.511 37.7111C68.511 37.2679 68.4829 36.8312 68.4287 36.4029V14.5856H70.842C71.0332 14.5991 71.2261 14.6059 71.4207 14.6059C75.8118 14.6059 79.3818 11.1203 79.4692 6.78769L79.6094 6.65079H79.4709V6.62479H63.3706Z" fill="black"/>
</g>
<path fill-rule="evenodd" clip-rule="evenodd" d="M59.8926 7.18793V7.21353H51.9463L44 15.0244H54.9746V47.8185L54.9839 47.8091V47.9212C60.4897 47.9212 64.9534 43.3846 64.9534 37.7885C64.9534 37.4664 64.9385 37.1479 64.9097 36.8335V15.0244H67.304C67.4934 15.0376 67.6848 15.0443 67.8777 15.0443C72.2332 15.0443 75.7739 11.6133 75.8608 7.34842L76 7.21353H75.8625V7.18793H59.8926Z" fill="url(#paint12_linear)"/>
<path fill-rule="evenodd" clip-rule="evenodd" d="M59.6779 14.901C59.6779 10.5374 56.1682 7.21353 51.8389 7.21353C47.5096 7.21353 44 10.7509 44 15.1146L59.6779 14.901Z" fill="url(#paint13_linear)"/>
<path opacity="0.4" fill-rule="evenodd" clip-rule="evenodd" d="M59.8926 7.18793V7.21353H44V15.0244H54.9746V47.8185L54.9839 47.8091V47.9212C60.4897 47.9212 64.9534 43.3846 64.9534 37.7885C64.9534 37.4664 64.9385 37.1479 64.9097 36.8335V15.0244H67.304C67.4934 15.0376 67.6848 15.0443 67.8777 15.0443C72.2332 15.0443 75.7739 11.6133 75.8608 7.34842L76 7.21353H75.8625V7.18793H59.8926Z" fill="url(#paint14_linear)"/>
<mask id="mask1" mask-type="alpha" maskUnits="userSpaceOnUse" x="44" y="7" width="32" height="41">
<path fill-rule="evenodd" clip-rule="evenodd" d="M59.8926 7.18793V7.21353H44V15.0244H54.9746V47.8185L54.9839 47.8091V47.9212C60.4897 47.9212 64.9534 43.3846 64.9534 37.7885C64.9534 37.4664 64.9385 37.1479 64.9097 36.8335V15.0244H67.304C67.4934 15.0376 67.6848 15.0443 67.8777 15.0443C72.2332 15.0443 75.7739 11.6133 75.8608 7.34842L76 7.21353H75.8625V7.18793H59.8926Z" fill="white"/>
</mask>
<g mask="url(#mask1)">
<path opacity="0.284877" fill-rule="evenodd" clip-rule="evenodd" d="M65.6097 38.2838C72.118 38.2838 77.394 33.0928 77.394 26.6894C77.394 20.2859 72.118 15.0949 65.6097 15.0949C59.1014 15.0949 53.8254 20.2859 53.8254 26.6894C53.8254 33.0928 59.1014 38.2838 65.6097 38.2838Z" fill="url(#paint15_linear)"/>
<path opacity="0.5" fill-rule="evenodd" clip-rule="evenodd" d="M65.2982 32.8385C69.7367 32.8385 73.3347 29.2984 73.3347 24.9315C73.3347 20.5645 69.7367 17.0244 65.2982 17.0244C60.8598 17.0244 57.2617 20.5645 57.2617 24.9315C57.2617 29.2984 60.8598 32.8385 65.2982 32.8385Z" fill="url(#paint16_linear)"/>
<path opacity="0.4" fill-rule="evenodd" clip-rule="evenodd" d="M90.8328 24.8715C90.8328 34.6966 82.7278 42.6615 72.73 42.6615C62.7322 42.6615 54.6274 34.6966 54.6274 24.8715C54.6274 15.0463 62.7322 7.08148 72.73 7.08148C82.7278 7.08148 90.8328 15.0463 90.8328 24.8715Z" fill="url(#paint17_linear)"/>
<path opacity="0.3" fill-rule="evenodd" clip-rule="evenodd" d="M86.5374 24.8715C86.5374 34.6966 78.4324 42.6615 68.4346 42.6615C58.4368 42.6615 50.332 34.6966 50.332 24.8715C50.332 15.0463 58.4368 7.08148 68.4346 7.08148C78.4324 7.08148 86.5374 15.0463 86.5374 24.8715Z" fill="url(#paint18_linear)"/>
<path opacity="0.4" fill-rule="evenodd" clip-rule="evenodd" d="M54.9531 14.5564C54.9531 18.7527 51.4915 22.1544 47.2214 22.1544C42.9514 22.1544 39.49 18.7527 39.49 14.5564C39.49 10.3601 42.9514 6.95837 47.2214 6.95837C51.4915 6.95837 54.9531 10.3601 54.9531 14.5564Z" fill="url(#paint19_linear)"/>
<path opacity="0.4" fill-rule="evenodd" clip-rule="evenodd" d="M54.7383 16.1691C54.7383 19.8409 51.7095 22.8174 47.9731 22.8174C44.2368 22.8174 41.208 19.8409 41.208 16.1691C41.208 12.4974 44.2368 9.52087 47.9731 9.52087C51.7095 9.52087 54.7383 12.4974 54.7383 16.1691Z" fill="url(#paint20_linear)"/>
<path opacity="0.3" fill-rule="evenodd" clip-rule="evenodd" d="M64.9395 31.237L68.0536 31.7708V50.776L55.1677 47.8932C55.1677 47.8932 59.4355 46.4 62.255 41.8073C65.0744 37.2145 64.9395 31.237 64.9395 31.237Z" fill="url(#paint21_linear)"/>
<g opacity="0.2" filter="url(#filter1_d)">
<path fill-rule="evenodd" clip-rule="evenodd" d="M54.738 27.3932C54.738 38.5381 45.5554 47.5729 34.228 47.5729C22.9006 47.5729 13.718 38.5381 13.718 27.3932C13.718 16.2483 22.9006 7.21353 34.228 7.21353C36.3201 7.21353 39.3372 10.2165 41.3149 12.1852C42.1721 13.0384 42.834 13.6973 43.1409 13.8333C43.5281 14.005 43.8987 13.3799 44.322 12.6588C44.4338 12.4683 44.5107 12.2753 44.5876 12.0823C44.6389 11.9539 44.6899 11.8256 44.7515 11.6979C45.054 11.0705 45.5032 10.5234 45.5032 10.5234C51.0417 14.1367 54.738 20.365 54.738 27.3932ZM43.9434 27.7473C43.9434 32.8309 39.7549 36.952 34.5879 36.952C29.4209 36.952 25.2324 32.8309 25.2324 27.7473C25.2324 22.6636 29.4209 18.5425 34.5879 18.5425C39.7549 18.5425 43.9434 22.6636 43.9434 27.7473Z" fill="black"/>
</g>
</g>
<path fill-rule="evenodd" clip-rule="evenodd" d="M51 29.5C51 40.8218 41.8218 50 30.5 50C19.1782 50 10 40.8218 10 29.5C10 18.1782 19.1782 9 30.5 9C41.8218 9 51 18.1782 51 29.5ZM40.2104 29.8596C40.2104 35.024 36.0239 39.2105 30.8596 39.2105C25.6953 39.2105 21.5088 35.024 21.5088 29.8596C21.5088 24.6953 25.6953 20.5088 30.8596 20.5088C36.0239 20.5088 40.2104 24.6953 40.2104 29.8596Z" fill="url(#paint22_linear)"/>
<mask id="mask2" mask-type="alpha" maskUnits="userSpaceOnUse" x="10" y="9" width="41" height="41">
<path fill-rule="evenodd" clip-rule="evenodd" d="M51 29.5C51 40.8218 41.8218 50 30.5 50C19.1782 50 10 40.8218 10 29.5C10 18.1782 19.1782 9 30.5 9C41.8218 9 51 18.1782 51 29.5ZM40.2104 29.8596C40.2104 35.024 36.0239 39.2105 30.8596 39.2105C25.6953 39.2105 21.5088 35.024 21.5088 29.8596C21.5088 24.6953 25.6953 20.5088 30.8596 20.5088C36.0239 20.5088 40.2104 24.6953 40.2104 29.8596Z" fill="white"/>
</mask>
<g mask="url(#mask2)">
<path opacity="0.5" fill-rule="evenodd" clip-rule="evenodd" d="M49 29.5C49 40.8218 39.8218 50 28.5 50C17.1782 50 8 40.8218 8 29.5C8 18.1782 17.1782 9 28.5 9C39.8218 9 49 18.1782 49 29.5ZM38.2104 29.8596C38.2104 35.024 34.0239 39.2105 28.8596 39.2105C23.6953 39.2105 19.5088 35.024 19.5088 29.8596C19.5088 24.6953 23.6953 20.5088 28.8596 20.5088C34.0239 20.5088 38.2104 24.6953 38.2104 29.8596Z" fill="url(#paint23_linear)"/>
<path opacity="0.3" fill-rule="evenodd" clip-rule="evenodd" d="M47 32.5C47 39.9558 40.9558 46 33.5 46C26.0442 46 20 39.9558 20 32.5C20 25.0442 26.0442 19 33.5 19C40.9558 19 47 25.0442 47 32.5ZM40.4275 29.4803C40.4275 34.5816 36.292 38.7171 31.1907 38.7171C26.0894 38.7171 21.9539 34.5816 21.9539 29.4803C21.9539 24.3789 26.0894 20.2434 31.1907 20.2434C36.292 20.2434 40.4275 24.3789 40.4275 29.4803Z" fill="url(#paint24_linear)"/>
<path opacity="0.5" fill-rule="evenodd" clip-rule="evenodd" d="M47 32.5C47 39.9558 40.9558 46 33.5 46C26.0442 46 20 39.9558 20 32.5C20 25.0442 26.0442 19 33.5 19C40.9558 19 47 25.0442 47 32.5ZM40.4275 29.4803C40.4275 34.5816 36.292 38.7171 31.1907 38.7171C26.0894 38.7171 21.9539 34.5816 21.9539 29.4803C21.9539 24.3789 26.0894 20.2434 31.1907 20.2434C36.292 20.2434 40.4275 24.3789 40.4275 29.4803Z" fill="url(#paint25_linear)"/>
<path opacity="0.3" fill-rule="evenodd" clip-rule="evenodd" d="M32 44C38.6274 44 44 38.6274 44 32C44 25.3726 38.6274 20 32 20C25.3726 20 20 25.3726 20 32C20 38.6274 25.3726 44 32 44Z" fill="url(#paint26_linear)"/>
<path opacity="0.3" fill-rule="evenodd" clip-rule="evenodd" d="M16.5 30C19.5376 30 22 27.5376 22 24.5C22 21.4624 19.5376 19 16.5 19C13.4624 19 11 21.4624 11 24.5C11 27.5376 13.4624 30 16.5 30Z" fill="url(#paint27_linear)"/>
<path opacity="0.3" fill-rule="evenodd" clip-rule="evenodd" d="M16.5 30C19.5376 30 22 27.5376 22 24.5C22 21.4624 19.5376 19 16.5 19C13.4624 19 11 21.4624 11 24.5C11 27.5376 13.4624 30 16.5 30Z" fill="url(#paint28_linear)"/>
<path opacity="0.05" fill-rule="evenodd" clip-rule="evenodd" d="M49 33C50.1046 33 51 32.1046 51 31C51 29.8954 50.1046 29 49 29C47.8954 29 47 29.8954 47 31C47 32.1046 47.8954 33 49 33Z" fill="url(#paint29_linear)"/>
<path opacity="0.25" fill-rule="evenodd" clip-rule="evenodd" d="M27 49C36.9411 49 45 40.9411 45 31C45 21.0589 36.9411 13 27 13C17.0589 13 9 21.0589 9 31C9 40.9411 17.0589 49 27 49Z" fill="url(#paint30_linear)"/>
<path opacity="0.2" fill-rule="evenodd" clip-rule="evenodd" d="M47 32C47 41.9411 38.9412 50 29 50C19.0588 50 11 41.9411 11 32C11 22.0589 19.0588 14 29 14C38.9412 14 47 22.0589 47 32Z" fill="url(#paint31_linear)"/>
<path opacity="0.25" fill-rule="evenodd" clip-rule="evenodd" d="M27 49C36.9411 49 45 40.9411 45 31C45 21.0589 36.9411 13 27 13C17.0589 13 9 21.0589 9 31C9 40.9411 17.0589 49 27 49Z" fill="url(#paint32_linear)"/>
<path opacity="0.25" fill-rule="evenodd" clip-rule="evenodd" d="M38 51C47.9411 51 56 42.9411 56 33C56 23.0589 47.9411 15 38 15C28.0589 15 20 23.0589 20 33C20 42.9411 28.0589 51 38 51Z" fill="url(#paint33_linear)"/>
<path opacity="0.5" fill-rule="evenodd" clip-rule="evenodd" d="M25 45C34.9411 45 43 36.9411 43 27C43 17.0589 34.9411 9 25 9C15.0589 9 7 17.0589 7 27C7 36.9411 15.0589 45 25 45Z" fill="url(#paint34_linear)"/>
<path opacity="0.1" fill-rule="evenodd" clip-rule="evenodd" d="M27 16C30.3137 16 33 15.3284 33 14.5C33 13.6716 30.3137 13 27 13C23.6863 13 21 13.6716 21 14.5C21 15.3284 23.6863 16 27 16Z" fill="white"/>
</g>
</g>
<defs>
<filter id="filter0_d" x="0" y="0" width="118.971" height="64" filterUnits="userSpaceOnUse" color-interpolation-filters="sRGB">
<feFlood flood-opacity="0" result="BackgroundImageFix"/>
<feColorMatrix in="SourceAlpha" type="matrix" values="0 0 0 0 0 0 0 0 0 0 0 0 0 0 0 0 0 0 127 0"/>
<feOffset dy="4"/>
<feGaussianBlur stdDeviation="5"/>
<feColorMatrix type="matrix" values="0 0 0 0 0 0 0 0 0 0 0 0 0 0 0 0 0 0 0.12 0"/>
<feBlend mode="normal" in2="BackgroundImageFix" result="effect1_dropShadow"/>
<feBlend mode="normal" in="SourceGraphic" in2="effect1_dropShadow" result="shape"/>
</filter>
<filter id="filter1_d" x="11.718" y="6.21353" width="45.02" height="44.3594" filterUnits="userSpaceOnUse" color-interpolation-filters="sRGB">
<feFlood flood-opacity="0" result="BackgroundImageFix"/>
<feColorMatrix in="SourceAlpha" type="matrix" values="0 0 0 0 0 0 0 0 0 0 0 0 0 0 0 0 0 0 127 0"/>
<feOffset dy="1"/>
<feGaussianBlur stdDeviation="1"/>
<feColorMatrix type="matrix" values="0 0 0 0 0 0 0 0 0 0 0 0 0 0 0 0 0 0 0.5 0"/>
<feBlend mode="normal" in2="BackgroundImageFix" result="effect1_dropShadow"/>
<feBlend mode="normal" in="SourceGraphic" in2="effect1_dropShadow" result="shape"/>
</filter>
<linearGradient id="paint0_linear" x1="73.2231" y1="6" x2="73.2231" y2="47" gradientUnits="userSpaceOnUse">
<stop stop-color="#FFC914"/>
<stop offset="1" stop-color="#1751C2"/>
</linearGradient>
<linearGradient id="paint1_linear" x1="57.0574" y1="22.7851" x2="77.0593" y2="60.0913" gradientUnits="userSpaceOnUse">
<stop/>
<stop offset="1" stop-color="#D8D8D8" stop-opacity="0.01"/>
</linearGradient>
<linearGradient id="paint2_linear" x1="129.45" y1="41.1199" x2="115.899" y2="14.5969" gradientUnits="userSpaceOnUse">
<stop stop-color="white"/>
<stop offset="1" stop-color="#D8D8D8" stop-opacity="0.01"/>
</linearGradient>
<linearGradient id="paint3_linear" x1="91.0436" y1="30.3023" x2="94.0771" y2="40.4276" gradientUnits="userSpaceOnUse">
<stop stop-color="#EEEEEE"/>
<stop offset="1" stop-color="#D8D8D8" stop-opacity="0.01"/>
</linearGradient>
<linearGradient id="paint4_linear" x1="73.5984" y1="20.5571" x2="70.9882" y2="25.2102" gradientUnits="userSpaceOnUse">
<stop stop-color="#EEEEEE" stop-opacity="0.01"/>
<stop offset="1" stop-color="#A59A57"/>
</linearGradient>
<linearGradient id="paint5_linear" x1="71.775" y1="20.8426" x2="70.7198" y2="25.9717" gradientUnits="userSpaceOnUse">
<stop stop-color="#EEEEEE" stop-opacity="0.01"/>
<stop offset="1" stop-color="#A59A57"/>
</linearGradient>
<linearGradient id="paint6_linear" x1="79.4197" y1="11.9504" x2="79.4197" y2="23.5027" gradientUnits="userSpaceOnUse">
<stop stop-color="white"/>
<stop offset="1" stop-color="#D8D8D8" stop-opacity="0.01"/>
</linearGradient>
<linearGradient id="paint7_linear" x1="92.1313" y1="11.9504" x2="92.1313" y2="23.5027" gradientUnits="userSpaceOnUse">
<stop stop-color="white"/>
<stop offset="1" stop-color="#D8D8D8" stop-opacity="0.01"/>
</linearGradient>
<linearGradient id="paint8_linear" x1="78.6933" y1="8.35386" x2="78.6933" y2="19.9062" gradientUnits="userSpaceOnUse">
<stop stop-color="white"/>
<stop offset="1" stop-color="#D8D8D8" stop-opacity="0.01"/>
</linearGradient>
<linearGradient id="paint9_linear" x1="65.9711" y1="34.4246" x2="98.3692" y2="67.6174" gradientUnits="userSpaceOnUse">
<stop/>
<stop offset="1" stop-color="#D8D8D8" stop-opacity="0.01"/>
</linearGradient>
<linearGradient id="paint10_linear" x1="77.5441" y1="40.468" x2="79.827" y2="43.932" gradientUnits="userSpaceOnUse">
<stop/>
<stop offset="1" stop-opacity="0.01"/>
</linearGradient>
<linearGradient id="paint11_linear" x1="69.2346" y1="33.0073" x2="96.4392" y2="60.8792" gradientUnits="userSpaceOnUse">
<stop/>
<stop offset="1" stop-color="#D8D8D8" stop-opacity="0.01"/>
</linearGradient>
<linearGradient id="paint12_linear" x1="47.3809" y1="7.18793" x2="47.3809" y2="47.9212" gradientUnits="userSpaceOnUse">
<stop stop-color="#FFC914"/>
<stop offset="1" stop-color="#1751C2"/>
</linearGradient>
<linearGradient id="paint13_linear" x1="13.6535" y1="7.21353" x2="13.6535" y2="47.371" gradientUnits="userSpaceOnUse">
<stop stop-color="#FFC914"/>
<stop offset="1" stop-color="#1751C2"/>
</linearGradient>
<linearGradient id="paint14_linear" x1="71.2425" y1="51.6181" x2="71.2425" y2="16.9995" gradientUnits="userSpaceOnUse">
<stop/>
<stop offset="1" stop-color="#D8D8D8" stop-opacity="0.01"/>
</linearGradient>
<linearGradient id="paint15_linear" x1="49.2135" y1="15.2194" x2="55.2137" y2="33.405" gradientUnits="userSpaceOnUse">
<stop/>
<stop offset="1" stop-color="#D8D8D8" stop-opacity="0.01"/>
</linearGradient>
<linearGradient id="paint16_linear" x1="54.1165" y1="17.1093" x2="58.2085" y2="29.5113" gradientUnits="userSpaceOnUse">
<stop/>
<stop offset="1" stop-color="#D8D8D8" stop-opacity="0.01"/>
</linearGradient>
<linearGradient id="paint17_linear" x1="62.45" y1="8.18657" x2="62.45" y2="15.1129" gradientUnits="userSpaceOnUse">
<stop stop-color="white"/>
<stop offset="1" stop-color="#D8D8D8" stop-opacity="0.01"/>
</linearGradient>
<linearGradient id="paint18_linear" x1="58.1546" y1="8.18657" x2="58.1546" y2="15.1129" gradientUnits="userSpaceOnUse">
<stop stop-color="white"/>
<stop offset="1" stop-color="#D8D8D8" stop-opacity="0.01"/>
</linearGradient>
<linearGradient id="paint19_linear" x1="60.2658" y1="15.6137" x2="49.8339" y2="4.98999" gradientUnits="userSpaceOnUse">
<stop/>
<stop offset="1" stop-color="#D8D8D8" stop-opacity="0.01"/>
</linearGradient>
<linearGradient id="paint20_linear" x1="59.3869" y1="17.0943" x2="50.2589" y2="7.79854" gradientUnits="userSpaceOnUse">
<stop/>
<stop offset="1" stop-color="#D8D8D8" stop-opacity="0.01"/>
</linearGradient>
<linearGradient id="paint21_linear" x1="56.874" y1="34.2879" x2="53.8341" y2="46.618" gradientUnits="userSpaceOnUse">
<stop stop-color="white"/>
<stop offset="1" stop-color="#D8D8D8" stop-opacity="0.01"/>
</linearGradient>
<linearGradient id="paint22_linear" x1="14.3317" y1="9" x2="14.3317" y2="50" gradientUnits="userSpaceOnUse">
<stop stop-color="#FFC914"/>
<stop offset="1" stop-color="#1751C2"/>
</linearGradient>
<linearGradient id="paint23_linear" x1="21.8402" y1="64.6051" x2="38.3054" y2="44.9944" gradientUnits="userSpaceOnUse">
<stop/>
<stop offset="1" stop-color="#1751C2" stop-opacity="0.01"/>
</linearGradient>
<linearGradient id="paint24_linear" x1="25.1673" y1="31.6504" x2="38.253" y2="45.8151" gradientUnits="userSpaceOnUse">
<stop/>
<stop offset="1" stop-color="#D8D8D8" stop-opacity="0.01"/>
</linearGradient>
<linearGradient id="paint25_linear" x1="48.0346" y1="39.2257" x2="39.6803" y2="30.6397" gradientUnits="userSpaceOnUse">
<stop stop-color="white"/>
<stop offset="1" stop-color="#D8D8D8" stop-opacity="0.01"/>
</linearGradient>
<linearGradient id="paint26_linear" x1="6.31822" y1="38.1499" x2="39.3318" y2="71.6437" gradientUnits="userSpaceOnUse">
<stop/>
<stop offset="1" stop-color="#D8D8D8" stop-opacity="0.01"/>
</linearGradient>
<linearGradient id="paint27_linear" x1="13.8914" y1="23.7321" x2="11.7899" y2="28.9492" gradientUnits="userSpaceOnUse">
<stop stop-color="#EEEEEE" stop-opacity="0.01"/>
<stop offset="1" stop-color="#A59A57"/>
</linearGradient>
<linearGradient id="paint28_linear" x1="13.8914" y1="23.7321" x2="11.7899" y2="28.9492" gradientUnits="userSpaceOnUse">
<stop stop-color="#EEEEEE" stop-opacity="0.01"/>
<stop offset="1" stop-color="#A59A57"/>
</linearGradient>
<linearGradient id="paint29_linear" x1="48.1823" y1="29.9384" x2="48.5582" y2="31.5738" gradientUnits="userSpaceOnUse">
<stop stop-color="#EEEEEE" stop-opacity="0.01"/>
<stop offset="1"/>
</linearGradient>
<linearGradient id="paint30_linear" x1="20.0233" y1="13" x2="20.0233" y2="26.9534" gradientUnits="userSpaceOnUse">
<stop stop-color="#EEEEEE"/>
<stop offset="1" stop-color="#D8D8D8" stop-opacity="0.01"/>
</linearGradient>
<linearGradient id="paint31_linear" x1="34.6075" y1="50" x2="34.6075" y2="44.382" gradientUnits="userSpaceOnUse">
<stop/>
<stop offset="1" stop-color="#D8D8D8" stop-opacity="0.01"/>
</linearGradient>
<linearGradient id="paint32_linear" x1="20.0233" y1="13" x2="20.0233" y2="26.9534" gradientUnits="userSpaceOnUse">
<stop stop-color="#EEEEEE"/>
<stop offset="1" stop-color="#D8D8D8" stop-opacity="0.01"/>
</linearGradient>
<linearGradient id="paint33_linear" x1="31.0233" y1="15" x2="31.0233" y2="28.9534" gradientUnits="userSpaceOnUse">
<stop stop-color="#EEEEEE"/>
<stop offset="1" stop-color="#D8D8D8" stop-opacity="0.01"/>
</linearGradient>
<linearGradient id="paint34_linear" x1="18.0233" y1="9" x2="18.0233" y2="22.9534" gradientUnits="userSpaceOnUse">
<stop stop-color="#EEEEEE"/>
<stop offset="1" stop-color="#D8D8D8" stop-opacity="0.01"/>
</linearGradient>
</defs>
</svg>
