<svg width="85" height="85" viewBox="0 0 85 85" fill="none" xmlns="http://www.w3.org/2000/svg">
    <g filter="url(#filter0_d)">
        <path fill-rule="evenodd" clip-rule="evenodd" d="M42.5 73C60.4493 73 75 58.4493 75 40.5C75 22.5507 60.4493 8 42.5 8C24.5507 8 10 22.5507 10 40.5C10 58.4493 24.5507 73 42.5 73Z" fill="#F29543"/>
    </g>
    <path fill-rule="evenodd" clip-rule="evenodd" d="M48.8409 41C47.15 41 44.515 41.51 42.5 42.5C40.485 41.495 37.85 41 36.1591 41C33.1014 41 27 42.62 27 45.875V50H58V45.875C58 42.62 51.8986 41 48.8409 41ZM43 48H29V46.3333C29 45.6133 32.584 44 36 44C39.416 44 43 45.6133 43 46.3333V48ZM56 48H45.7132V46.3333C45.7132 45.72 45.4389 45.1867 45 44.7067C46.207 44.3067 47.6883 44 49.1421 44C52.4888 44 56 45.6133 56 46.3333V48ZM36 40C38.7571 40 41 37.7571 41 35C41 32.2429 38.7571 30 36 30C33.2429 30 31 32.2429 31 35C31 37.7571 33.2429 40 36 40ZM36 32C37.65 32 39 33.35 39 35C39 36.65 37.65 38 36 38C34.35 38 33 36.65 33 35C33 33.35 34.35 32 36 32ZM49 40C51.7571 40 54 37.7571 54 35C54 32.2429 51.7571 30 49 30C46.2429 30 44 32.2429 44 35C44 37.7571 46.2429 40 49 40ZM49 32C50.65 32 52 33.35 52 35C52 36.65 50.65 38 49 38C47.35 38 46 36.65 46 35C46 33.35 47.35 32 49 32Z" fill="white"/>
    <mask id="mask0" mask-type="alpha" maskUnits="userSpaceOnUse" x="27" y="30" width="31" height="20">
        <path fill-rule="evenodd" clip-rule="evenodd" d="M48.8409 41C47.15 41 44.515 41.51 42.5 42.5C40.485 41.495 37.85 41 36.1591 41C33.1014 41 27 42.62 27 45.875V50H58V45.875C58 42.62 51.8986 41 48.8409 41ZM43 48H29V46.3333C29 45.6133 32.584 44 36 44C39.416 44 43 45.6133 43 46.3333V48ZM56 48H45.7132V46.3333C45.7132 45.72 45.4389 45.1867 45 44.7067C46.207 44.3067 47.6883 44 49.1421 44C52.4888 44 56 45.6133 56 46.3333V48ZM36 40C38.7571 40 41 37.7571 41 35C41 32.2429 38.7571 30 36 30C33.2429 30 31 32.2429 31 35C31 37.7571 33.2429 40 36 40ZM36 32C37.65 32 39 33.35 39 35C39 36.65 37.65 38 36 38C34.35 38 33 36.65 33 35C33 33.35 34.35 32 36 32ZM49 40C51.7571 40 54 37.7571 54 35C54 32.2429 51.7571 30 49 30C46.2429 30 44 32.2429 44 35C44 37.7571 46.2429 40 49 40ZM49 32C50.65 32 52 33.35 52 35C52 36.65 50.65 38 49 38C47.35 38 46 36.65 46 35C46 33.35 47.35 32 49 32Z" fill="white"/>
    </mask>
    <g mask="url(#mask0)">
    </g>
    <defs>
        <filter id="filter0_d" x="0" y="0" width="85" height="85" filterUnits="userSpaceOnUse" color-interpolation-filters="sRGB">
            <feFlood flood-opacity="0" result="BackgroundImageFix"/>
            <feColorMatrix in="SourceAlpha" type="matrix" values="0 0 0 0 0 0 0 0 0 0 0 0 0 0 0 0 0 0 127 0"/>
            <feOffset dy="2"/>
            <feGaussianBlur stdDeviation="5"/>
            <feColorMatrix type="matrix" values="0 0 0 0 0.027451 0 0 0 0 0.164706 0 0 0 0 0.266667 0 0 0 0.1 0"/>
            <feBlend mode="normal" in2="BackgroundImageFix" result="effect1_dropShadow"/>
            <feBlend mode="normal" in="SourceGraphic" in2="effect1_dropShadow" result="shape"/>
        </filter>
    </defs>
</svg>
