<svg width="46" height="46" viewBox="0 0 46 46" fill="none" xmlns="http://www.w3.org/2000/svg">
<path fill-rule="evenodd" clip-rule="evenodd" d="M31.0925 29.1967L30.361 28.4913C32.9213 25.513 34.4627 21.6465 34.4627 17.4404C34.4627 8.06144 26.8603 0.459023 17.4813 0.459023C8.10242 0.459023 0.5 8.06144 0.5 17.4404C0.5 26.8193 8.10242 34.4217 17.4813 34.4217C21.6875 34.4217 25.554 32.8803 28.5323 30.3201L29.2377 31.0516V33.1155L40.886 44.7405C41.6673 45.5202 42.9325 45.5196 43.713 44.7391L44.7801 43.6721C45.5606 42.8916 45.5612 41.6263 44.7815 40.845L33.1564 29.1967H31.0925ZM17.4814 29.1967C10.9763 29.1967 5.7251 23.9456 5.7251 17.4404C5.7251 10.9353 10.9763 5.68412 17.4814 5.68412C23.9866 5.68412 29.2377 10.9353 29.2377 17.4404C29.2377 23.9456 23.9866 29.1967 17.4814 29.1967Z" fill="#E1E2E1"/>
<mask id="mask0" mask-type="alpha" maskUnits="userSpaceOnUse" x="0" y="0" width="46" height="46">
<path fill-rule="evenodd" clip-rule="evenodd" d="M31.0925 29.1967L30.361 28.4913C32.9213 25.513 34.4627 21.6465 34.4627 17.4404C34.4627 8.06144 26.8603 0.459023 17.4813 0.459023C8.10242 0.459023 0.5 8.06144 0.5 17.4404C0.5 26.8193 8.10242 34.4217 17.4813 34.4217C21.6875 34.4217 25.554 32.8803 28.5323 30.3201L29.2377 31.0516V33.1155L40.886 44.7405C41.6673 45.5202 42.9325 45.5196 43.713 44.7391L44.7801 43.6721C45.5606 42.8916 45.5612 41.6263 44.7815 40.845L33.1564 29.1967H31.0925ZM17.4814 29.1967C10.9763 29.1967 5.7251 23.9456 5.7251 17.4404C5.7251 10.9353 10.9763 5.68412 17.4814 5.68412C23.9866 5.68412 29.2377 10.9353 29.2377 17.4404C29.2377 23.9456 23.9866 29.1967 17.4814 29.1967Z" fill="white"/>
</mask>
<g mask="url(#mask0)">
</g>
</svg>
