<svg width="24" height="20" viewBox="0 0 24 20" fill="none" xmlns="http://www.w3.org/2000/svg">
<path fill-rule="evenodd" clip-rule="evenodd" d="M18.3844 19.7791C18.7064 20.0071 19.1214 20.0641 19.4914 19.9241C19.8614 19.7831 20.1334 19.4671 20.2154 19.0841C21.0844 15.0001 23.1924 4.66315 23.9834 0.948148C24.0434 0.668148 23.9434 0.377148 23.7234 0.190148C23.5034 0.0031482 23.1984 -0.0508518 22.9264 0.0501482C18.7334 1.60215 5.8204 6.44715 0.542398 8.40015C0.207398 8.52415 -0.0106021 8.84615 0.000397854 9.19915C0.0123979 9.55315 0.250398 9.86015 0.593398 9.96315C2.9604 10.6711 6.0674 11.6561 6.0674 11.6561C6.0674 11.6561 7.5194 16.0411 8.2764 18.2711C8.3714 18.5511 8.5904 18.7711 8.8794 18.8471C9.1674 18.9221 9.4754 18.8431 9.6904 18.6401C10.9064 17.4921 12.7864 15.7171 12.7864 15.7171C12.7864 15.7171 16.3584 18.3361 18.3844 19.7791ZM7.37451 11.1023L9.05351 16.6403L9.42651 13.1333C9.42651 13.1333 15.9135 7.28228 19.6115 3.94728C19.7195 3.84928 19.7345 3.68528 19.6445 3.57028C19.5555 3.45528 19.3915 3.42828 19.2685 3.50628C14.9825 6.24328 7.37451 11.1023 7.37451 11.1023Z" fill="#919AA3"/>
</svg>
