<svg width="25" height="25" viewBox="0 0 25 25" fill="none" xmlns="http://www.w3.org/2000/svg">
    <mask id="mask0" mask-type="alpha" maskUnits="userSpaceOnUse" x="1" y="5" width="23" height="15">
        <path fill-rule="evenodd" clip-rule="evenodd" d="M17.1878 13.542C15.9378 13.542 13.9899 13.8962 12.5003 14.5837C11.0107 13.8857 9.06283 13.542 7.81283 13.542C5.55241 13.542 1.04199 14.667 1.04199 16.9274V19.792H23.9587V16.9274C23.9587 14.667 19.4482 13.542 17.1878 13.542ZM13.0212 18.2295H2.60449V16.9274C2.60449 16.3649 5.27116 15.1045 7.81283 15.1045C10.3545 15.1045 13.0212 16.3649 13.0212 16.9274V18.2295ZM22.3962 18.2295H14.5837V16.9274C14.5837 16.4482 14.3753 16.0316 14.042 15.6566C14.9587 15.3441 16.0837 15.1045 17.1878 15.1045C19.7295 15.1045 22.3962 16.3649 22.3962 16.9274V18.2295ZM7.81283 12.5007C9.82324 12.5007 11.4587 10.8652 11.4587 8.85482C11.4587 6.8444 9.82324 5.20898 7.81283 5.20898C5.80241 5.20898 4.16699 6.8444 4.16699 8.85482C4.16699 10.8652 5.80241 12.5007 7.81283 12.5007ZM7.81283 6.77148C8.95866 6.77148 9.89616 7.70898 9.89616 8.85482C9.89616 10.0007 8.95866 10.9382 7.81283 10.9382C6.66699 10.9382 5.72949 10.0007 5.72949 8.85482C5.72949 7.70898 6.66699 6.77148 7.81283 6.77148ZM17.1878 12.5007C19.1982 12.5007 20.8337 10.8652 20.8337 8.85482C20.8337 6.8444 19.1982 5.20898 17.1878 5.20898C15.1774 5.20898 13.542 6.8444 13.542 8.85482C13.542 10.8652 15.1774 12.5007 17.1878 12.5007ZM17.1878 6.77148C18.3337 6.77148 19.2712 7.70898 19.2712 8.85482C19.2712 10.0007 18.3337 10.9382 17.1878 10.9382C16.042 10.9382 15.1045 10.0007 15.1045 8.85482C15.1045 7.70898 16.042 6.77148 17.1878 6.77148Z" fill="white"/>
    </mask>
    <g mask="url(#mask0)">
        <rect x="-13.542" y="-13.541" width="52.0833" height="52.0833" fill="white"/>
        <mask id="mask1" mask-type="alpha" maskUnits="userSpaceOnUse" x="-14" y="-14" width="53" height="53">
            <rect x="-13.542" y="-13.541" width="52.0833" height="52.0833" fill="white"/>
        </mask>
        <g mask="url(#mask1)">
        </g>
    </g>
</svg>