<svg width="31" height="20" viewBox="0 0 31 20" fill="none" xmlns="http://www.w3.org/2000/svg">
    <path fill-rule="evenodd" clip-rule="evenodd" d="M21.8409 11C20.15 11 17.515 11.51 15.5 12.5C13.485 11.495 10.85 11 9.15909 11C6.10136 11 0 12.62 0 15.875V20H31V15.875C31 12.62 24.8986 11 21.8409 11ZM16 18H2V16.3333C2 15.6133 5.584 14 9 14C12.416 14 16 15.6133 16 16.3333V18ZM29 18H18.7132V16.3333C18.7132 15.72 18.4389 15.1867 18 14.7067C19.207 14.3067 20.6883 14 22.1421 14C25.4888 14 29 15.6133 29 16.3333V18ZM9 10C11.7571 10 14 7.75714 14 5C14 2.24286 11.7571 0 9 0C6.24286 0 4 2.24286 4 5C4 7.75714 6.24286 10 9 10ZM9 2C10.65 2 12 3.35 12 5C12 6.65 10.65 8 9 8C7.35 8 6 6.65 6 5C6 3.35 7.35 2 9 2ZM22 10C24.7571 10 27 7.75714 27 5C27 2.24286 24.7571 0 22 0C19.2429 0 17 2.24286 17 5C17 7.75714 19.2429 10 22 10ZM22 2C23.65 2 25 3.35 25 5C25 6.65 23.65 8 22 8C20.35 8 19 6.65 19 5C19 3.35 20.35 2 22 2Z" fill="white"/>
    <mask id="mask0" mask-type="alpha" maskUnits="userSpaceOnUse" x="0" y="0" width="31" height="20">
        <path fill-rule="evenodd" clip-rule="evenodd" d="M21.8409 11C20.15 11 17.515 11.51 15.5 12.5C13.485 11.495 10.85 11 9.15909 11C6.10136 11 0 12.62 0 15.875V20H31V15.875C31 12.62 24.8986 11 21.8409 11ZM16 18H2V16.3333C2 15.6133 5.584 14 9 14C12.416 14 16 15.6133 16 16.3333V18ZM29 18H18.7132V16.3333C18.7132 15.72 18.4389 15.1867 18 14.7067C19.207 14.3067 20.6883 14 22.1421 14C25.4888 14 29 15.6133 29 16.3333V18ZM9 10C11.7571 10 14 7.75714 14 5C14 2.24286 11.7571 0 9 0C6.24286 0 4 2.24286 4 5C4 7.75714 6.24286 10 9 10ZM9 2C10.65 2 12 3.35 12 5C12 6.65 10.65 8 9 8C7.35 8 6 6.65 6 5C6 3.35 7.35 2 9 2ZM22 10C24.7571 10 27 7.75714 27 5C27 2.24286 24.7571 0 22 0C19.2429 0 17 2.24286 17 5C17 7.75714 19.2429 10 22 10ZM22 2C23.65 2 25 3.35 25 5C25 6.65 23.65 8 22 8C20.35 8 19 6.65 19 5C19 3.35 20.35 2 22 2Z" fill="white"/>
    </mask>
    <g mask="url(#mask0)">
    </g>
</svg>
